# This file uses centimeters as units for non-parametric coordinates.

mtllib cube_frame.mtl
g default
v -0.500000 -0.500000 0.500000
v 0.500000 -0.500000 0.500000
v -0.500000 0.500000 0.500000
v 0.500000 0.500000 0.500000
v -0.500000 0.500000 -0.500000
v 0.500000 0.500000 -0.500000
v -0.500000 -0.500000 -0.500000
v 0.500000 -0.500000 -0.500000
v 0.514034 -0.454323 -0.454323
v 0.514034 -0.454323 0.454323
v 0.514034 0.454323 -0.454323
v 0.514034 0.454323 0.454323
v -0.514034 -0.454323 -0.454323
v -0.514034 -0.454323 0.454323
v -0.514034 0.454323 0.454323
v -0.514034 0.454323 -0.454323
v -0.456501 -0.456501 0.514034
v 0.456501 -0.456501 0.514034
v 0.456501 0.456501 0.514034
v -0.456501 0.456501 0.514034
v -0.456501 0.456501 -0.514034
v 0.456501 0.456501 -0.514034
v 0.456501 -0.456501 -0.514034
v -0.456501 -0.456501 -0.514034
v -0.447033 0.514034 0.447033
v 0.447033 0.514034 0.447033
v 0.447033 0.514034 -0.447033
v -0.447033 0.514034 -0.447033
v -0.447033 -0.514034 -0.447033
v 0.447033 -0.514034 -0.447033
v 0.447033 -0.514034 0.447033
v -0.447033 -0.514034 0.447033
vt 0.375000 0.000000
vt 0.625000 0.000000
vt 0.375000 0.250000
vt 0.625000 0.250000
vt 0.375000 0.500000
vt 0.625000 0.500000
vt 0.375000 0.750000
vt 0.625000 0.750000
vt 0.375000 1.000000
vt 0.625000 1.000000
vt 0.875000 0.000000
vt 0.875000 0.250000
vt 0.125000 0.000000
vt 0.125000 0.250000
vt 0.625000 0.000000
vt 0.875000 0.000000
vt 0.875000 0.250000
vt 0.625000 0.250000
vt 0.125000 0.000000
vt 0.375000 0.000000
vt 0.375000 0.250000
vt 0.125000 0.250000
vt 0.375000 0.000000
vt 0.625000 0.000000
vt 0.625000 0.250000
vt 0.375000 0.250000
vt 0.375000 0.500000
vt 0.625000 0.500000
vt 0.625000 0.750000
vt 0.375000 0.750000
vt 0.375000 0.250000
vt 0.625000 0.250000
vt 0.625000 0.500000
vt 0.375000 0.500000
vt 0.375000 0.750000
vt 0.625000 0.750000
vt 0.625000 1.000000
vt 0.375000 1.000000
vt 0.000359 0.000000
vt 0.999641 0.000000
vt 1.000000 0.135536
vt 0.000000 0.135536
vt 0.000000 0.000000
vt 1.000000 0.000000
vt 0.993525 0.140541
vt 0.006475 0.140541
vt 0.000000 0.000000
vt 1.000000 0.000000
vt 0.999641 0.135536
vt 0.000359 0.135536
vt 0.006475 0.000000
vt 0.993525 0.000000
vt 1.000000 0.140541
vt 0.000000 0.140541
vt 0.000000 0.000000
vt 1.000000 0.000000
vt 0.993170 0.140194
vt 0.006830 0.140194
vt 0.006830 0.000000
vt 0.993170 0.000000
vt 1.000000 0.140194
vt 0.000000 0.140194
vt 0.000000 0.140194
vt 1.000000 0.140194
vt 0.993170 0.000000
vt 0.006830 0.000000
vt 0.006830 0.140194
vt 0.993170 0.140194
vt 1.000000 0.000000
vt 0.000000 0.000000
vt 0.000359 0.000000
vt 0.999641 0.000000
vt 1.000000 0.135536
vt 0.000000 0.135536
vt 0.006475 0.000000
vt 0.993525 0.000000
vt 1.000000 0.140541
vt 0.000000 0.140541
vt 0.000000 0.000000
vt 1.000000 0.000000
vt 0.999641 0.135536
vt 0.000359 0.135536
vt 0.000000 0.000000
vt 1.000000 0.000000
vt 0.464593 0.846519
vt 0.000000 0.000000
vt 1.000000 0.000000
vt 0.466330 0.843773
vt 0.000000 0.000000
vt 1.000000 0.000000
vt 0.464594 0.846519
vt 0.000000 0.000000
vt 1.000000 0.000000
vt 0.535407 0.846518
vt 0.000000 0.000000
vt 1.000000 0.000000
vt 0.498255 0.907852
vt 0.000000 0.000000
vt 1.000000 0.000000
vt 0.464593 0.846518
vt 0.000000 0.000000
vt 1.000000 0.000000
vt 0.993525 0.140541
vt 0.006475 0.140541
vt 0.000000 0.000000
vt 1.000000 0.000000
vt 0.501745 0.907852
vt 0.000000 0.000000
vt 1.000000 0.000000
vt 0.535407 0.846519
vn 0.955901 -0.293689 0.000000
vn 0.955901 -0.293689 0.000000
vn 0.955901 -0.293689 0.000000
vn 0.955901 -0.293689 0.000000
vn 0.955901 0.000000 -0.293688
vn 0.955901 0.000000 -0.293688
vn 0.955901 0.000000 -0.293688
vn 0.955901 0.000000 -0.293688
vn 0.955901 0.293689 0.000000
vn 0.955901 0.293689 0.000000
vn 0.955901 0.293689 0.000000
vn 0.955901 0.293689 0.000000
vn 0.955901 0.000000 0.293688
vn 0.955901 0.000000 0.293688
vn 0.955901 0.000000 0.293688
vn 0.955901 0.000000 0.293688
vn -0.955901 -0.293688 0.000000
vn -0.955901 -0.293688 0.000000
vn -0.955901 -0.293688 0.000000
vn -0.955901 -0.293688 0.000000
vn -0.955902 0.000000 0.293688
vn -0.955902 0.000000 0.293688
vn -0.955901 0.000000 0.293688
vn -0.955901 0.000000 0.293688
vn -0.955901 0.293688 0.000000
vn -0.955901 0.293688 0.000000
vn -0.955901 0.293688 0.000000
vn -0.955901 0.293688 0.000000
vn -0.955901 0.000000 -0.293689
vn -0.955901 0.000000 -0.293689
vn -0.955901 0.000000 -0.293689
vn -0.955901 0.000000 -0.293689
vn 0.000000 -0.307037 0.951697
vn 0.000000 -0.307037 0.951697
vn 0.000000 -0.307037 0.951697
vn 0.000000 -0.307037 0.951697
vn 0.307038 0.000000 0.951697
vn 0.307038 0.000000 0.951697
vn 0.307038 0.000000 0.951697
vn 0.307038 0.000000 0.951697
vn 0.000000 0.307037 0.951697
vn 0.000000 0.307037 0.951697
vn 0.000000 0.307037 0.951697
vn 0.000000 0.307037 0.951697
vn -0.307038 0.000000 0.951697
vn -0.307038 0.000000 0.951697
vn -0.307038 0.000000 0.951697
vn -0.307038 0.000000 0.951697
vn 0.000000 0.307037 -0.951697
vn 0.000000 0.307037 -0.951697
vn 0.000000 0.307037 -0.951697
vn 0.000000 0.307037 -0.951697
vn 0.307038 0.000000 -0.951697
vn 0.307038 0.000000 -0.951697
vn 0.307038 0.000000 -0.951697
vn 0.307038 0.000000 -0.951697
vn 0.000000 -0.307037 -0.951697
vn 0.000000 -0.307037 -0.951697
vn 0.000000 -0.307037 -0.951697
vn 0.000000 -0.307037 -0.951697
vn -0.307038 0.000000 -0.951697
vn -0.307038 0.000000 -0.951697
vn -0.307038 0.000000 -0.951697
vn -0.307038 0.000000 -0.951697
vn 0.000000 0.966646 0.256115
vn 0.000000 0.966646 0.256115
vn 0.000000 0.966646 0.256115
vn 0.000000 0.966646 0.256115
vn 0.256115 0.966646 0.000000
vn 0.256115 0.966646 0.000000
vn 0.256115 0.966646 0.000000
vn 0.256115 0.966646 0.000000
vn 0.000000 0.966646 -0.256115
vn 0.000000 0.966646 -0.256115
vn 0.000000 0.966646 -0.256115
vn 0.000000 0.966646 -0.256115
vn -0.256115 0.966646 0.000000
vn -0.256115 0.966646 0.000000
vn -0.256115 0.966646 0.000000
vn -0.256115 0.966646 0.000000
vn 0.000000 -0.966646 -0.256115
vn 0.000000 -0.966646 -0.256115
vn 0.000000 -0.966646 -0.256115
vn 0.000000 -0.966646 -0.256115
vn 0.256115 -0.966646 0.000000
vn 0.256115 -0.966646 0.000000
vn 0.256115 -0.966646 0.000000
vn 0.256115 -0.966646 0.000000
vn 0.000000 -0.966646 0.256115
vn 0.000000 -0.966646 0.256115
vn 0.000000 -0.966646 0.256115
vn 0.000000 -0.966646 0.256115
vn -0.256115 -0.966646 0.000000
vn -0.256115 -0.966646 0.000000
vn -0.256115 -0.966646 0.000000
vn -0.256115 -0.966646 0.000000
vn -0.665326 0.746553 0.000000
vn -0.665326 0.746553 0.000000
vn -0.665326 0.746553 0.000000
vn -0.665326 0.746553 0.000000
vn -0.720119 0.000000 0.693851
vn -0.720119 0.000000 0.693851
vn -0.720119 0.000000 0.693851
vn -0.720119 0.000000 0.693851
vn -0.665326 -0.746553 0.000000
vn -0.665326 -0.746553 0.000000
vn -0.665326 -0.746553 0.000000
vn -0.665326 -0.746553 0.000000
vn -0.720118 0.000000 -0.693851
vn -0.720118 0.000000 -0.693851
vn -0.720118 0.000000 -0.693851
vn -0.720118 0.000000 -0.693851
vn 0.000000 0.758677 0.651468
vn 0.000000 0.758677 0.651468
vn 0.000000 0.758677 0.651468
vn 0.000000 0.758677 0.651468
vn 0.000000 0.758677 -0.651468
vn 0.000000 0.758677 -0.651468
vn 0.000000 0.758677 -0.651468
vn 0.000000 0.758677 -0.651468
vn 0.000000 -0.758677 0.651468
vn 0.000000 -0.758677 0.651468
vn 0.000000 -0.758677 0.651468
vn 0.000000 -0.758677 0.651468
vn 0.000000 -0.758677 -0.651468
vn 0.000000 -0.758677 -0.651468
vn 0.000000 -0.758677 -0.651468
vn 0.000000 -0.758677 -0.651468
vn 0.665326 0.746553 0.000000
vn 0.665326 0.746553 0.000000
vn 0.665326 0.746553 0.000000
vn 0.665326 0.746553 0.000000
vn 0.720118 0.000000 0.693851
vn 0.720118 0.000000 0.693851
vn 0.720118 0.000000 0.693851
vn 0.720118 0.000000 0.693851
vn 0.665326 -0.746553 0.000000
vn 0.665326 -0.746553 0.000000
vn 0.665326 -0.746553 0.000000
vn 0.665326 -0.746553 0.000000
vn -0.544982 -0.672628 0.500566
vn -0.544982 -0.672628 0.500566
vn -0.544982 -0.672628 0.500566
vn -0.544982 0.672628 0.500566
vn -0.544982 0.672628 0.500566
vn -0.544982 0.672628 0.500566
vn 0.544982 0.672628 0.500567
vn 0.544981 0.672628 0.500567
vn 0.544981 0.672628 0.500567
vn -0.544982 -0.672628 -0.500566
vn -0.544982 -0.672628 -0.500566
vn -0.544981 -0.672628 -0.500566
vn 0.544982 -0.672627 0.500567
vn 0.544982 -0.672627 0.500567
vn 0.544982 -0.672628 0.500567
vn -0.544982 0.672628 -0.500566
vn -0.544982 0.672628 -0.500566
vn -0.544982 0.672628 -0.500566
vn 0.720119 0.000000 -0.693851
vn 0.720119 0.000000 -0.693851
vn 0.720119 0.000000 -0.693851
vn 0.720119 0.000000 -0.693851
vn 0.544982 -0.672627 -0.500566
vn 0.544982 -0.672627 -0.500566
vn 0.544982 -0.672627 -0.500566
vn 0.544982 0.672627 -0.500566
vn 0.544982 0.672627 -0.500566
vn 0.544982 0.672627 -0.500566
s off
g pCube1
usemtl initialShadingGroup
f 2/2/1 8/11/2 9/16/3 10/15/4
f 8/11/5 6/12/6 11/17/7 9/16/8
f 6/12/9 4/4/10 12/18/11 11/17/12
f 4/4/13 2/2/14 10/15/15 12/18/16
f 7/13/17 1/1/18 14/20/19 13/19/20
f 1/1/21 3/3/22 15/21/23 14/20/24
f 3/3/25 5/14/26 16/22/27 15/21/28
f 5/14/29 7/13/30 13/19/31 16/22/32
f 1/1/33 2/2/34 18/24/35 17/23/36
f 2/2/37 4/4/38 19/25/39 18/24/40
f 4/4/41 3/3/42 20/26/43 19/25/44
f 3/3/45 1/1/46 17/23/47 20/26/48
f 5/5/49 6/6/50 22/28/51 21/27/52
f 6/6/53 8/8/54 23/29/55 22/28/56
f 8/8/57 7/7/58 24/30/59 23/29/60
f 7/7/61 5/5/62 21/27/63 24/30/64
f 3/3/65 4/4/66 26/32/67 25/31/68
f 4/4/69 6/6/70 27/33/71 26/32/72
f 6/6/73 5/5/74 28/34/75 27/33/76
f 5/5/77 3/3/78 25/31/79 28/34/80
f 7/7/81 8/8/82 30/36/83 29/35/84
f 8/8/85 2/10/86 31/37/87 30/36/88
f 2/10/89 1/9/90 32/38/91 31/37/92
f 1/9/93 7/7/94 29/35/95 32/38/96
f 10/39/97 9/40/98 30/41/99 31/42/100
f 9/43/101 11/44/102 22/45/103 23/46/104
f 26/47/105 27/48/106 11/49/107 12/50/108
f 18/51/109 19/52/110 12/53/111 10/54/112
f 29/55/113 30/56/114 23/57/115 24/58/116
f 17/59/117 18/60/118 31/61/119 32/62/120
f 27/63/121 28/64/122 21/65/123 22/66/124
f 19/67/125 20/68/126 25/69/127 26/70/128
f 13/71/129 14/72/130 32/73/131 29/74/132
f 24/75/133 21/76/134 16/77/135 13/78/136
f 28/79/137 25/80/138 15/81/139 16/82/140
f 27/83/141 22/84/142 11/85/143
f 9/86/144 23/87/145 30/88/146
f 29/89/147 24/90/148 13/91/149
f 19/92/150 26/93/151 12/94/152
f 28/95/153 16/96/154 21/97/155
f 31/98/156 18/99/157 10/100/158
f 14/101/159 15/102/160 20/103/161 17/104/162
f 15/105/163 25/106/164 20/107/165
f 17/108/166 32/109/167 14/110/168
